<?xml version="1.0" encoding="iso-8859-1"?>
<!-- Uploaded to: SVG Repo, www.svgrepo.com, Generator: SVG Repo Mixer Tools -->
<svg fill="#000000" version="1.1" id="Layer_1" xmlns="http://www.w3.org/2000/svg" xmlns:xlink="http://www.w3.org/1999/xlink" 
	 viewBox="0 0 450 450" xml:space="preserve">
<g id="XMLID_104_">
	<g>
		<g>
			<path d="M200,170c5.258,0,10.305,0.915,15,2.58V0H80C55.187,0,35,20.187,35,45v140c0,24.814,20.187,45,45,45h77.58
				c-1.665-4.695-2.58-9.742-2.58-15C155,190.186,175.187,170,200,170z"/>
			<path d="M345,200v-60h-14.301c13.066-9.514,21.581-24.916,21.581-42.279c0-13.499-5.139-26.316-14.471-36.091L300,23.775
				l-37.567,37.607l-0.235,0.24c-9.335,9.775-14.477,22.595-14.477,36.098c0,17.363,8.515,32.766,21.581,42.279H255v60h-12.58
				c1.665,4.695,2.58,9.742,2.58,15c0,24.814-20.187,45-45,45c-5.258,0-10.305-0.914-15-2.58V360h230V200H345z M315,200h-30v-30h30
				V200z"/>
			<rect x="185" y="390" width="230" height="60"/>
			<path d="M185,215c0,8.271,6.729,15,15,15s15-6.729,15-15s-6.729-15-15-15S185,206.729,185,215z"/>
		</g>
	</g>
</g>
</svg>